<svg xmlns="http://www.w3.org/2000/svg" width="324.06854248046875" height="233.96873474121094" viewBox="-327.34930419921875 -19.35502052307129 324.06854248046875 233.96873474121094"><title>Neo4j Graph Visualization</title><desc>Created using Neo4j (http://www.neo4j.com/)</desc><g class="layer relationships"><g class="relationship" transform="translate(-166.49652666316302 77.11463200884832) rotate(180.9456578570127)"><path class="outline" fill="#A5ABB6" stroke="none" d="M 6.953439040707552 24.018736134675446 L 17.306200844808384 62.65576918623819 A 17.916697508022974 17.916697508022974 0 1 1 -17.306200844808384 62.65576918623819 L -8.765172356425198 30.780216918698923 L -4.901469051268926 31.815493099109005 L -6.4704761275630185 24.148145657226706 L -11.662949835292403 30.00375978339136 L -7.79924653013613 31.039035963801442 L -16.340275018519314 62.91458823134071 A 16.916697508022974 16.916697508022974 0 1 0 16.340275018519314 62.91458823134071 L 5.987513214418485 24.277555179777966 Z"/><text text-anchor="middle" pointer-events="none" font-size="8px" fill="#000000" x="0" y="94.20964923467838" transform="rotate(180 0 91.20964923467838)" font-family="sans-serif">Parent</text></g><g class="relationship" transform="translate(-298.3493048315286 76.19981344189807) rotate(360.39752216523175)"><path class="outline" fill="#A5ABB6" stroke="none" d="M 25 0.5 L 32.958279814584586 0.5 L 32.958279814584586 -0.5 L 25 -0.5 Z M 91.89767190442834 0.5 L 99.85595171901292 0.5 L 99.85595171901292 3.5 L 106.85595171901292 0 L 99.85595171901292 -3.5 L 99.85595171901292 -0.5 L 91.89767190442834 -0.5 Z"/><text text-anchor="middle" pointer-events="none" font-size="8px" fill="#000000" x="62.42797585950646" y="3" font-family="sans-serif">BranchCommit</text></g><g class="relationship" transform="translate(-166.49652666316302 77.11463200884832) rotate(361.49379354879363)"><path class="outline" fill="#A5ABB6" stroke="none" d="M 25 0.5 L 40.016825798171965 0.5 L 40.016825798171965 -0.5 L 25 -0.5 Z M 84.74409783186337 0.5 L 99.76092363003534 0.5 L 99.76092363003534 3.5 L 106.76092363003534 0 L 99.76092363003534 -3.5 L 99.76092363003534 -0.5 L 84.74409783186337 -0.5 Z"/><text text-anchor="middle" pointer-events="none" font-size="8px" fill="#000000" x="62.38046181501767" y="3" font-family="sans-serif">UpdateFile</text></g><g class="relationship" transform="translate(-165.71488850056295 185.61370138040547) rotate(269.5872426063386)"><path class="outline" fill="#A5ABB6" stroke="none" d="M 25 0.5 L 35.963063427242794 0.5 L 35.963063427242794 -0.5 L 25 -0.5 Z M 65.53882140758947 0.5 L 76.50188483483227 0.5 L 76.50188483483227 3.5 L 83.50188483483227 0 L 76.50188483483227 -3.5 L 76.50188483483227 -0.5 L 65.53882140758947 -0.5 Z"/><text text-anchor="middle" pointer-events="none" font-size="8px" fill="#000000" x="50.750942417416134" y="3" transform="rotate(180 50.750942417416134 0)" font-family="sans-serif">Author</text></g><g class="relationship" transform="translate(-166.49652666316302 77.11463200884832) rotate(398.76468351344806)"><path class="outline" fill="#A5ABB6" stroke="none" d="M 25 0.5 L 53.308619508725315 0.5 L 53.308619508725315 -0.5 L 25 -0.5 Z M 111.82377148626438 0.5 L 140.1323909949897 0.5 L 140.1323909949897 3.5 L 147.1323909949897 0 L 140.1323909949897 -3.5 L 140.1323909949897 -0.5 L 111.82377148626438 -0.5 Z"/><text text-anchor="middle" pointer-events="none" font-size="8px" fill="#000000" x="82.56619549749485" y="3" font-family="sans-serif">UpdateMethod</text></g><g class="relationship" transform="translate(-34.780381366854314 80.5494630267738) rotate(448.6276738265441)"><path class="outline" fill="#A5ABB6" stroke="none" d="M 25 0.5 L 32.33711950097837 0.5 L 32.33711950097837 -0.5 L 25 -0.5 Z M 65.03408948694027 0.5 L 72.37120898791865 0.5 L 72.37120898791865 3.5 L 79.37120898791865 0 L 72.37120898791865 -3.5 L 72.37120898791865 -0.5 L 65.03408948694027 -0.5 Z"/><text text-anchor="middle" pointer-events="none" font-size="8px" fill="#000000" x="48.685604493959325" y="3" font-family="sans-serif">Method</text></g></g><g class="layer nodes"><g class="node" transform="translate(-298.3493048315286,76.19981344189807)"><circle class="outline" cx="0" cy="0" r="25" fill="#F79767" stroke="#f36924" stroke-width="2px"/><text text-anchor="middle" pointer-events="none" font-family="sans-serif" dy="1.5625" font-size="25" fill="#FFFFFF"/><text text-anchor="middle" pointer-events="none" y="5" font-size="10px" fill="#FFFFFF" font-family="sans-serif"> Branch</text></g><g class="node" transform="translate(-166.49652666316302,77.11463200884832)"><circle class="outline" cx="0" cy="0" r="25" fill="#57C7E3" stroke="#23b3d7" stroke-width="2px"/><text text-anchor="middle" pointer-events="none" font-family="sans-serif" dy="1.5625" font-size="25" fill="#FFFFFF"/><text text-anchor="middle" pointer-events="none" y="5" font-size="10px" fill="#FFFFFF" font-family="sans-serif"> Commit</text></g><g class="node" transform="translate(-165.71488850056295,185.61370138040547)"><circle class="outline" cx="0" cy="0" r="25" fill="#F16667" stroke="#eb2728" stroke-width="2px"/><text text-anchor="middle" pointer-events="none" font-family="sans-serif" dy="1.5625" font-size="25" fill="#FFFFFF"/><text text-anchor="middle" pointer-events="none" y="5" font-size="10px" fill="#FFFFFF" font-family="sans-serif"> Developer</text></g><g class="node" transform="translate(-34.780381366854314,80.5494630267738)"><circle class="outline" cx="0" cy="0" r="25" fill="#D9C8AE" stroke="#c0a378" stroke-width="2px"/><text text-anchor="middle" pointer-events="none" font-family="sans-serif" dy="1.5625" font-size="25" fill="#604A0E"/><text text-anchor="middle" pointer-events="none" y="5" font-size="10px" fill="#604A0E" font-family="sans-serif"> File</text></g><g class="node" transform="translate(-32.28076187232737,184.89073562770756)"><circle class="outline" cx="0" cy="0" r="25" fill="#8DCC93" stroke="#5db665" stroke-width="2px"/><text text-anchor="middle" pointer-events="none" font-family="sans-serif" dy="1.5625" font-size="25" fill="#604A0E"/><text text-anchor="middle" pointer-events="none" y="5" font-size="10px" fill="#604A0E" font-family="sans-serif"> Method</text></g></g></svg>